# xmcd
#
# Track frame offsets:
# 183
# 20683
# 33408
# 42258
# 53758
# 60708
# 75258
# 89658
# 103033
# 117208
# 139833
# 153433
# 161483
# 172158
# 183258
# 194658
# 207633
# 220558
# 233208
# 244108
#
# Disc length: 3432 seconds
#
#
# Revision: 4
# Processed by: cddbd v1.5.2PL0 Copyright (c) Steve Scherf et al.
# Submitted via: FreeRIP 2.945 
#
DISCID=190d6614
DTITLE=Various Artist - Gospels and Spirituals - 40 Classic Performances [CD 2)
DYEAR=1997
DGENRE=Gospel
TTITLE0=Franklin, Aretha - The Day Is Past And Gone (Traditional)
TTITLE1=Robeson, Paul - Swing Low Sweet Chariot (Traditional)
TTITLE2=Robeson, Paul - Joshua Fit De Battle Ob Jericho (Traditional)
TTITLE3=Robeson, Paul - Ol' Man River (Kern-Hammerstein II)
TTITLE4=Robeson, Paul - Didn't My Lord Deliver Daniel (Traditional)
TTITLE5=Robeson, Paul - Jacob's Ladder (Traditional)
TTITLE6=Verrett, Shirley - I'm A Poor Little Orphan In This World! (Perry)
TTITLE7=Verrett, Shirley - Roll Jord'n Roll (Traditional)
TTITLE8=Verrett, Shirley - Hold On! (Traditional)
TTITLE9=Verrett, Shirley - O Glory (Traditional)
TTITLE10=Mississippi Singers - Daniel Saw The Stone (Traditional)
TTITLE11=Mississippi Singers - Yes Indeed (Traditional)
TTITLE12=Mississippi Singers - Talk About Jesus (Traditional)
TTITLE13=Mississippi Singers - Walk Around (Traditional)
TTITLE14=Mississippi Singers - He'll Never Let Go Your Hand (Traditional)
TTITLE15=Oak Ridge Boys - That Old Country Church (Traditional)
TTITLE16=Oak Ridge Boys - Dear Jesus Abide With Me (Traditional)
TTITLE17=Oak Ridge Boys - Thank God I'm Reborn (Traditional)
TTITLE18=Oak Ridge Boys - I'll Wake Up On The Other Side (Traditional)
TTITLE19=Vaughan, Sarah - The Lord's Prayer (Traditional)
EXTD=
EXTT0=
EXTT1=
EXTT2=
EXTT3=
EXTT4=
EXTT5=
EXTT6=
EXTT7=
EXTT8=
EXTT9=
EXTT10=
EXTT11=
EXTT12=
EXTT13=
EXTT14=
EXTT15=
EXTT16=
EXTT17=
EXTT18=
EXTT19=
PLAYORDER=
